# xmcd
#
# Track frame offsets:
#	150
#	17499
#	35352
#	65537
#	90993
#	114541
#	159842
#	183459
#	206982
#
# Disc length: 2996 seconds
#
# Revision: 1
# Processed by: cddbd v1.5.1PL2 Copyright (c) Steve Scherf et al.
# Submitted via: EasyCDDAExtractor 9.0.0.1
#
DISCID=6c0bb209
DTITLE=Saxon - Kreuz Fulda 09-12-05 Disc 1
DYEAR=2005
DGENRE=Hard Rock
TTITLE0=Motorcycle Man
TTITLE1=Never Surrender
TTITLE2=Strong Arm Of The Law
TTITLE3=Stallions Of The Highway
TTITLE4=Power And The Glory
TTITLE5=Frozen Rainbow
TTITLE6=Suzie Hold On
TTITLE7=Crusader
TTITLE8=The Eagle Has Landed
EXTD=
EXTT0=
EXTT1=
EXTT2=
EXTT3=
EXTT4=
EXTT5=
EXTT6=
EXTT7=
EXTT8=
PLAYORDER=
